<svg width="25" height="24" viewBox="0 0 25 24" fill="none" xmlns="http://www.w3.org/2000/svg">
<path d="M10.9746 2.99609C10.4785 2.99609 10.0758 2.59342 10.0758 2.09727V1.19844C10.0758 0.702294 10.4785 0.299622 10.9746 0.299622C11.4708 0.299622 11.8735 0.702294 11.8735 1.19844V2.09727C11.8735 2.59342 11.4708 2.99609 10.9746 2.99609Z" fill="#595959"/>
<path d="M18.8188 10.8406C18.3226 10.8406 17.92 10.4379 17.92 9.94178C17.92 6.28896 14.9539 3.17634 11.3082 3.00376C7.6581 2.83523 4.4039 5.6463 4.0601 9.278C4.03943 9.49506 4.02909 9.71797 4.02909 9.94178C4.02909 10.4379 3.62642 10.8406 3.13027 10.8406C2.63412 10.8406 2.23145 10.4379 2.23145 9.94178C2.23145 9.66134 2.24448 9.38091 2.27054 9.10857C2.70333 4.53536 6.80062 0.992196 11.3932 1.20836C15.9835 1.42543 19.7176 5.3434 19.7176 9.94178C19.7176 10.4384 19.3149 10.8406 18.8188 10.8406Z" fill="#595959"/>
<path d="M20.5036 16.971C20.282 16.971 20.0595 16.8892 19.8856 16.7252C18.6362 15.5423 17.9194 13.8768 17.9194 12.156C17.9194 11.6599 18.3221 11.2572 18.8183 11.2572C19.3144 11.2572 19.7171 11.6599 19.7171 12.156C19.7171 13.3852 20.229 14.5752 21.1215 15.4197C21.4819 15.7608 21.4976 16.3297 21.1565 16.6906C20.9799 16.8766 20.7417 16.971 20.5036 16.971Z" fill="#595959"/>
<path d="M1.44491 16.971C1.20627 16.971 0.968532 16.8771 0.791913 16.6901C0.450809 16.3297 0.466538 15.7608 0.826967 15.4197C1.7195 14.5752 2.23138 13.3856 2.23138 12.156C2.23138 11.6599 2.63405 11.2572 3.1302 11.2572C3.62636 11.2572 4.02903 11.6599 4.02903 12.156C4.02903 13.8777 3.31222 15.5432 2.06285 16.7252C1.88848 16.8892 1.66647 16.971 1.44491 16.971Z" fill="#595959"/>
<path d="M10.9747 23.6691C8.5389 23.6691 6.48059 21.6108 6.48059 19.1749C6.48059 18.6788 6.88326 18.2761 7.37941 18.2761C7.87556 18.2761 8.27824 18.6788 8.27824 19.1749C8.27824 20.6364 9.51322 21.8714 10.9747 21.8714C12.4362 21.8714 13.6712 20.6364 13.6712 19.1749C13.6712 18.6788 14.0738 18.2761 14.57 18.2761C15.0661 18.2761 15.4688 18.6788 15.4688 19.1749C15.4688 21.6108 13.4105 23.6691 10.9747 23.6691Z" fill="#595959"/>
<path d="M2.68032 20.0738C1.5851 20.0738 0.610779 19.4042 0.19777 18.3678C-0.215689 17.3301 0.0310381 16.1729 0.826497 15.4197C1.18692 15.0781 1.75543 15.0939 2.09743 15.4543C2.43854 15.8147 2.42326 16.3837 2.06283 16.7252C1.66914 17.0982 1.81385 17.5679 1.86778 17.7027C1.92126 17.8366 2.13833 18.2761 2.68032 18.2761C3.17647 18.2761 3.57914 18.6788 3.57914 19.175C3.57914 19.6711 3.17692 20.0738 2.68032 20.0738Z" fill="#595959"/>
<path d="M19.2681 20.0737C18.7719 20.0737 18.3693 19.6711 18.3693 19.1749C18.3693 18.6788 18.7719 18.2761 19.2681 18.2761C19.8105 18.2761 20.028 17.8348 20.082 17.6995C20.1354 17.5651 20.2797 17.0973 19.886 16.7247C19.5256 16.3832 19.5099 15.8147 19.851 15.4538C20.1925 15.0934 20.761 15.0776 21.1219 15.4187C21.9174 16.172 22.1645 17.3283 21.752 18.3642C21.3385 19.4028 20.3633 20.0737 19.2681 20.0737Z" fill="#595959"/>
<path d="M3.12991 13.0544C2.63375 13.0544 2.23108 12.6517 2.23108 12.1555V9.94173C2.23108 9.44558 2.63375 9.04291 3.12991 9.04291C3.62606 9.04291 4.02873 9.44558 4.02873 9.94173V12.1555C4.02873 12.6517 3.62651 13.0544 3.12991 13.0544Z" fill="#595959"/>
<path d="M18.8187 13.0544C18.3226 13.0544 17.9199 12.6517 17.9199 12.1555V9.94173C17.9199 9.44558 18.3226 9.04291 18.8187 9.04291C19.3149 9.04291 19.7176 9.44558 19.7176 9.94173V12.1555C19.7176 12.6517 19.3149 13.0544 18.8187 13.0544Z" fill="#595959"/>
<path d="M19.2682 20.0738H2.68044C2.18429 20.0738 1.78162 19.6711 1.78162 19.1749C1.78162 18.6788 2.18429 18.2761 2.68044 18.2761H19.2678C19.7639 18.2761 20.1666 18.6788 20.1666 19.1749C20.1666 19.6711 19.7644 20.0738 19.2682 20.0738Z" fill="#595959"/>
<circle cx="18.7644" cy="5.39294" r="4.89294" fill="#2395FF" stroke="white"/>
</svg>
